2.2Hzlow3min_grf.mot
version=1
nRows=20
nColumns 19
inDegrees=yes
endheader
time	1_ground_force_vx	1_ground_force_vy	1_ground_force_vz	1_ground_force_px	1_ground_force_py	1_ground_force_pz	1_ground_torque_x	1_ground_torque_y	1_ground_torque_z	2_ground_force_vx	2_ground_force_vy	2_ground_force_vz	2_ground_force_px	2_ground_force_py	2_ground_force_pz	2_ground_torque_x	2_ground_torque_y	2_ground_torque_z
            3.751500	          -38.108644	          920.175252	          -62.865601	           -0.248913	            0.006325	           -0.429744	            0.027326	           -0.659824	            0.045079	          -55.922362	          756.228733	           71.284457	           -0.229737	            0.005721	           -0.716273	           -0.026730	            0.361462	            0.034073
            3.752000	          -37.557612	          917.650914	          -62.694364	           -0.248906	            0.006324	           -0.429646	            0.024949	           -0.609585	            0.041647	          -55.350961	          753.653508	           71.040371	           -0.229836	            0.005719	           -0.715977	           -0.031326	            0.426526	            0.040205
            3.752500	          -37.144204	          914.405757	          -62.617582	           -0.248903	            0.006324	           -0.429479	            0.026531	           -0.653134	            0.044726	          -54.643501	          752.366620	           71.176265	           -0.229915	            0.005719	           -0.716106	           -0.035786	            0.492722	            0.046613
            3.753000	          -36.592780	          910.979666	          -62.358505	           -0.248987	            0.006324	           -0.429602	            0.031050	           -0.772984	            0.052912	          -54.070792	          749.423281	           70.883944	           -0.229907	            0.005719	           -0.716071	           -0.036359	            0.503938	            0.047665
            3.753500	          -36.040460	          907.011433	          -61.780753	           -0.248945	            0.006325	           -0.429738	            0.030506	           -0.767719	            0.052293	          -53.268298	          747.768205	           71.018468	           -0.229927	            0.005720	           -0.716286	           -0.035782	            0.502304	            0.047706
            3.754000	          -35.993446	          904.306185	          -61.517318	           -0.248868	            0.006324	           -0.429519	            0.032504	           -0.816648	            0.055554	          -52.514130	          746.482657	           70.825838	           -0.229878	            0.005720	           -0.716314	           -0.038563	            0.548166	            0.052010
            3.754500	          -35.488185	          901.421246	          -61.347513	           -0.248833	            0.006324	           -0.429631	            0.033046	           -0.839394	            0.057126	          -51.799399	          743.170251	           70.860648	           -0.229981	            0.005719	           -0.716076	           -0.044649	            0.640585	            0.061079
            3.755000	          -35.578031	          898.174344	          -60.856780	           -0.248775	            0.006323	           -0.429313	            0.037920	           -0.957309	            0.064864	          -51.324374	          741.331539	           70.572309	           -0.229957	            0.005720	           -0.716295	           -0.048370	            0.698661	            0.066510
            3.755500	          -34.705513	          894.928096	          -60.506008	           -0.248678	            0.006324	           -0.429470	            0.034058	           -0.878238	            0.059378	          -50.615002	          739.492715	           70.518504	           -0.230082	            0.005719	           -0.716233	           -0.049554	            0.723993	            0.069040
            3.756000	          -34.291745	          890.961606	          -60.340613	           -0.248900	            0.006325	           -0.429709	            0.035886	           -0.932379	            0.063146	          -49.999990	          737.837754	           70.465411	           -0.230021	            0.005720	           -0.716271	           -0.046291	            0.683103	            0.065238
            3.756500	          -33.786507	          887.536096	          -60.218995	           -0.248749	            0.006324	           -0.429592	            0.037718	           -0.990805	            0.067226	          -49.102636	          735.816197	           70.223157	           -0.230124	            0.005719	           -0.716334	           -0.049267	            0.738282	            0.070458
            3.757000	          -33.418260	          884.289751	          -59.866964	           -0.248684	            0.006324	           -0.429620	            0.038920	           -1.029865	            0.069723	          -48.537135	          734.897629	           70.172712	           -0.230189	            0.005720	           -0.716683	           -0.057404	            0.869150	            0.082992
            3.757500	          -33.049444	          881.042545	          -59.285664	           -0.248684	            0.006323	           -0.429379	            0.041128	           -1.096411	            0.073778	          -47.685303	          732.507621	           69.929163	           -0.230127	            0.005720	           -0.716656	           -0.054784	            0.841553	            0.080339
            3.758000	          -32.818478	          877.074914	          -58.890531	           -0.248789	            0.006324	           -0.429610	            0.042571	           -1.137706	            0.076390	          -46.881625	          730.485558	           69.733885	           -0.230202	            0.005720	           -0.716461	           -0.055516	            0.865017	            0.082577
            3.758500	          -32.129296	          873.648457	          -58.540077	           -0.248639	            0.006324	           -0.429528	            0.040256	           -1.094634	            0.073348	          -46.079193	          728.831106	           69.727632	           -0.230305	            0.005719	           -0.716558	           -0.057047	            0.902302	            0.086324
            3.759000	          -31.532243	          870.763338	          -58.324647	           -0.248490	            0.006323	           -0.429404	            0.041213	           -1.138102	            0.076231	          -45.269594	          725.152095	           69.385663	           -0.230295	            0.005719	           -0.716480	           -0.056029	            0.897500	            0.085877
            3.759500	          -31.026151	          865.173854	          -58.028865	           -0.248609	            0.006324	           -0.429646	            0.041816	           -1.166050	            0.078209	          -44.605080	          722.760741	           69.329907	           -0.230221	            0.005719	           -0.716357	           -0.060591	            0.981797	            0.094178
            3.760000	          -30.199313	          862.287796	          -57.584722	           -0.248575	            0.006324	           -0.429490	            0.041122	           -1.174169	            0.078413	          -44.039702	          721.843178	           68.997893	           -0.230226	            0.005720	           -0.716654	           -0.063714	            1.044313	            0.099821
            3.760500	          -29.876797	          859.041246	          -57.186732	           -0.248536	            0.006323	           -0.429360	            0.044199	           -1.270855	            0.084601	          -43.183772	          718.347366	           68.985050	           -0.230374	            0.005720	           -0.716658	           -0.062500	            1.039673	            0.099843
            3.761000	          -29.462133	          854.532491	          -56.702662	           -0.248484	            0.006325	           -0.429706	            0.043330	           -1.256763	            0.083393	          -42.378149	          715.773276	           68.693944	           -0.230413	            0.005719	           -0.716493	           -0.058481	            0.987750	            0.094796
